# xmcd
#
# Track frame offsets: 
#        150
#        12647
#        25874
#        41379
#        57169
#        72819
#        86332
#        101767
#        116589
#        130945
#
# Disc length: 1953 seconds
#
# Revision: 0
# Processed by: cddbd v1.5.2PL0 Copyright (c) Steve Scherf et al.
# Submitted via: ExactAudioCopy v0.99pb5
#
DISCID=7d079f0a
DTITLE=B.B. King - Blues in My Heart
DYEAR=1900
DGENRE=Blues
TTITLE0=You're Gonna Miss Me
TTITLE1=Got 'em Bad
TTITLE2=Troubles Don't Last
TTITLE3=Your Letter
TTITLE4=I Can't Explain
TTITLE5=Wrong Road
TTITLE6=I Need You Baby
TTITLE7=So Many Days
TTITLE8=Downhearted
TTITLE9=Strange Things
EXTD=
EXTT0=
EXTT1=
EXTT2=
EXTT3=
EXTT4=
EXTT5=
EXTT6=
EXTT7=
EXTT8=
EXTT9=
PLAYORDER=
